<?xml version="1.0" standalone="no"?>
<svg xmlns:xlink="http://www.w3.org/1999/xlink" id="wave" style="transform:rotate(0deg); transition: 0.3s" viewBox="0 0 1440 160" version="1.1" xmlns="http://www.w3.org/2000/svg"><defs><linearGradient id="sw-gradient-0" x1="0" x2="0" y1="1" y2="0"><stop stop-color="rgba(0, 173, 240, 1)" offset="0%"/><stop stop-color="rgba(200, 233, 248, 1)" offset="100%"/></linearGradient></defs><path style="transform:translate(0, 0px); opacity:1" fill="url(#sw-gradient-0)" d="M0,96L40,88C80,80,160,64,240,72C320,80,400,112,480,112C560,112,640,80,720,56C800,32,880,16,960,8C1040,0,1120,0,1200,8C1280,16,1360,32,1440,53.3C1520,75,1600,101,1680,93.3C1760,85,1840,43,1920,45.3C2000,48,2080,96,2160,109.3C2240,123,2320,101,2400,80C2480,59,2560,37,2640,29.3C2720,21,2800,27,2880,34.7C2960,43,3040,53,3120,56C3200,59,3280,53,3360,61.3C3440,69,3520,91,3600,88C3680,85,3760,59,3840,40C3920,21,4000,11,4080,8C4160,5,4240,11,4320,21.3C4400,32,4480,48,4560,45.3C4640,43,4720,21,4800,29.3C4880,37,4960,75,5040,90.7C5120,107,5200,101,5280,90.7C5360,80,5440,64,5520,64C5600,64,5680,80,5720,88L5760,96L5760,160L5720,160C5680,160,5600,160,5520,160C5440,160,5360,160,5280,160C5200,160,5120,160,5040,160C4960,160,4880,160,4800,160C4720,160,4640,160,4560,160C4480,160,4400,160,4320,160C4240,160,4160,160,4080,160C4000,160,3920,160,3840,160C3760,160,3680,160,3600,160C3520,160,3440,160,3360,160C3280,160,3200,160,3120,160C3040,160,2960,160,2880,160C2800,160,2720,160,2640,160C2560,160,2480,160,2400,160C2320,160,2240,160,2160,160C2080,160,2000,160,1920,160C1840,160,1760,160,1680,160C1600,160,1520,160,1440,160C1360,160,1280,160,1200,160C1120,160,1040,160,960,160C880,160,800,160,720,160C640,160,560,160,480,160C400,160,320,160,240,160C160,160,80,160,40,160L0,160Z"/></svg>